M48
; DRILL file {KiCad (5.1.2)-1} date 10/11/2019 15:37:31
; FORMAT={-:-/ absolute / metric / decimal}
; #@! TF.CreationDate,2019-11-10T15:37:31+00:00
; #@! TF.GenerationSoftware,Kicad,Pcbnew,(5.1.2)-1
FMAT,2
METRIC
T1C0.400
T2C0.800
T3C0.900
T4C1.000
T5C1.200
T6C1.500
T7C2.000
T8C2.500
%
G90
G05
T1
X113.538Y-154.94
T2
X128.27Y-81.28
X128.27Y-91.44
X115.57Y-81.28
X115.57Y-91.44
X114.3Y-137.795
X114.3Y-139.795
X114.3Y-141.795
X121.92Y-81.28
X121.92Y-91.44
X134.62Y-81.28
X134.62Y-91.44
X125.73Y-127.635
X125.73Y-137.795
T3
X118.668Y-37.392
X118.668Y-39.932
X130.733Y-37.392
X130.733Y-39.932
X125.018Y-37.392
X125.018Y-39.932
T4
X129.54Y-145.415
X132.04Y-145.415
X139.34Y-148.575
X141.88Y-148.575
X144.42Y-148.575
X146.96Y-148.575
X149.5Y-148.575
X152.04Y-148.575
X154.58Y-148.575
X157.12Y-148.575
X159.66Y-148.575
X177.165Y-84.455
X179.705Y-84.455
X182.245Y-84.455
X184.785Y-84.455
X119.38Y-98.425
X119.38Y-121.285
X121.92Y-98.425
X121.92Y-121.285
X124.46Y-98.425
X124.46Y-121.285
X127.0Y-98.425
X127.0Y-121.285
X129.54Y-98.425
X129.54Y-121.285
X132.08Y-98.425
X132.08Y-121.285
X134.62Y-98.425
X134.62Y-121.285
X137.16Y-98.425
X137.16Y-121.285
X173.355Y-85.09
X173.355Y-87.63
X173.355Y-90.17
X173.355Y-92.71
X173.355Y-95.25
X173.355Y-97.79
X173.355Y-100.33
X173.355Y-102.87
X173.355Y-105.41
X173.355Y-107.95
X173.355Y-110.49
X173.355Y-113.03
X173.355Y-115.57
X173.355Y-118.11
X173.355Y-120.65
X173.355Y-123.19
T5
X143.571Y-45.629
X146.111Y-45.629
X148.651Y-45.629
X151.191Y-45.629
X153.731Y-45.629
X156.271Y-45.629
X158.811Y-45.629
X161.351Y-45.629
X163.891Y-45.629
X166.431Y-45.629
X168.971Y-45.629
X171.511Y-45.629
X174.051Y-45.629
X176.591Y-45.629
X179.131Y-45.629
X181.671Y-45.629
T6
X114.3Y-135.695
X114.3Y-143.895
T7
X153.75Y-97.66
X156.25Y-94.91
X156.25Y-99.91
T8
X112.171Y-45.629
X112.171Y-76.63
X187.17Y-45.629
X187.17Y-76.63
T0
M30
