G04 #@! TF.GenerationSoftware,KiCad,Pcbnew,(5.1.2)-1*
G04 #@! TF.CreationDate,2019-11-10T15:37:20+00:00*
G04 #@! TF.ProjectId,Keypad,4b657970-6164-42e6-9b69-6361645f7063,1*
G04 #@! TF.SameCoordinates,Original*
G04 #@! TF.FileFunction,Profile,NP*
%FSLAX46Y46*%
G04 Gerber Fmt 4.6, Leading zero omitted, Abs format (unit mm)*
G04 Created by KiCad (PCBNEW (5.1.2)-1) date 2019-11-10 15:37:20*
%MOMM*%
%LPD*%
G04 APERTURE LIST*
%ADD10C,0.100000*%
G04 APERTURE END LIST*
D10*
X184658000Y-168275000D02*
X186095000Y-168275000D01*
X182753000Y-156413200D02*
X182753000Y-166370000D01*
X117906800Y-154508200D02*
X180848000Y-154508200D01*
X116005000Y-166370000D02*
X116001800Y-156413200D01*
X112905000Y-168275000D02*
X114100000Y-168275000D01*
X180848000Y-154508200D02*
G75*
G02X182753000Y-156413200I0J-1905000D01*
G01*
X116001800Y-156413200D02*
G75*
G02X117906800Y-154508200I1905000J0D01*
G01*
X184658000Y-168275000D02*
G75*
G02X182753000Y-166370000I0J1905000D01*
G01*
X116005000Y-166370000D02*
G75*
G02X114100000Y-168275000I-1905000J0D01*
G01*
X183000000Y-42000000D02*
G75*
G02X181000000Y-40000000I0J2000000D01*
G01*
X188000000Y-42000000D02*
X183000000Y-42000000D01*
X181000000Y-35500000D02*
X181000000Y-40000000D01*
X117000000Y-40000000D02*
G75*
G02X115000000Y-42000000I-2000000J0D01*
G01*
X117000000Y-40000000D02*
X117000000Y-35500000D01*
X111000000Y-42000000D02*
X115000000Y-42000000D01*
X188000000Y-166370000D02*
G75*
G02X186095000Y-168275000I-1905000J0D01*
G01*
X112905000Y-168275000D02*
G75*
G02X111000000Y-166370000I0J1905000D01*
G01*
X111000000Y-166370000D02*
X111000000Y-42000000D01*
X188000000Y-42000000D02*
X188000000Y-166370000D01*
X117000000Y-35500000D02*
X181000000Y-35500000D01*
M02*
