G04 #@! TF.GenerationSoftware,KiCad,Pcbnew,(5.1.2)-1*
G04 #@! TF.CreationDate,2019-11-10T15:37:20+00:00*
G04 #@! TF.ProjectId,Keypad,4b657970-6164-42e6-9b69-6361645f7063,1*
G04 #@! TF.SameCoordinates,Original*
G04 #@! TF.FileFunction,Legend,Bot*
G04 #@! TF.FilePolarity,Positive*
%FSLAX46Y46*%
G04 Gerber Fmt 4.6, Leading zero omitted, Abs format (unit mm)*
G04 Created by KiCad (PCBNEW (5.1.2)-1) date 2019-11-10 15:37:20*
%MOMM*%
%LPD*%
G04 APERTURE LIST*
%ADD10C,0.150000*%
%ADD11C,0.120000*%
%ADD12C,0.100000*%
%ADD13C,3.102000*%
%ADD14O,1.902000X2.702000*%
%ADD15R,1.902000X2.702000*%
%ADD16O,1.702000X2.102000*%
%ADD17R,2.102000X2.102000*%
%ADD18C,2.202000*%
%ADD19O,1.802000X2.102000*%
%ADD20C,1.802000*%
%ADD21C,1.902000*%
%ADD22R,1.902000X1.902000*%
%ADD23O,1.802000X1.802000*%
%ADD24R,1.802000X1.802000*%
%ADD25O,1.702000X1.702000*%
%ADD26C,1.702000*%
%ADD27O,3.602000X2.302000*%
%ADD28O,2.602000X1.602000*%
%ADD29R,2.602000X1.602000*%
G04 APERTURE END LIST*
D10*
X109246046Y-32026939D02*
X109912688Y-32021121D01*
X109492859Y-33024823D01*
X110301521Y-32922525D02*
X110349554Y-32969726D01*
X110302352Y-33017759D01*
X110254319Y-32970557D01*
X110301521Y-32922525D01*
X110302352Y-33017759D01*
X110960267Y-32011979D02*
X111055501Y-32011148D01*
X111151151Y-32057934D01*
X111199184Y-32105136D01*
X111247632Y-32199955D01*
X111296912Y-32390008D01*
X111298990Y-32628095D01*
X111253035Y-32818979D01*
X111206248Y-32914629D01*
X111159047Y-32962662D01*
X111064228Y-33011110D01*
X110968993Y-33011941D01*
X110873343Y-32965155D01*
X110825311Y-32917953D01*
X110776862Y-32823135D01*
X110727583Y-32633081D01*
X110725505Y-32394995D01*
X110771460Y-32204111D01*
X110818246Y-32108460D01*
X110865448Y-32060428D01*
X110960267Y-32011979D01*
X112198315Y-32001175D02*
X111722143Y-32005331D01*
X111678681Y-32481918D01*
X111725883Y-32433886D01*
X111820701Y-32385437D01*
X112058788Y-32383360D01*
X112154438Y-32430146D01*
X112202470Y-32477347D01*
X112250919Y-32572166D01*
X112252997Y-32810253D01*
X112206210Y-32905903D01*
X112159009Y-32953935D01*
X112064190Y-33002384D01*
X111826104Y-33004461D01*
X111730454Y-32957675D01*
X111682421Y-32910474D01*
X113103042Y-31993280D02*
X112912573Y-31994942D01*
X112817755Y-32043390D01*
X112770553Y-32091423D01*
X112676565Y-32235106D01*
X112630610Y-32425990D01*
X112633934Y-32806928D01*
X112682383Y-32901747D01*
X112730415Y-32948949D01*
X112826066Y-32995735D01*
X113016534Y-32994073D01*
X113111353Y-32945624D01*
X113158555Y-32897592D01*
X113205341Y-32801942D01*
X113203263Y-32563855D01*
X113154815Y-32469036D01*
X113106782Y-32421835D01*
X113011132Y-32375049D01*
X112820663Y-32376711D01*
X112725844Y-32425159D01*
X112678643Y-32473192D01*
X112631857Y-32568842D01*
X114397434Y-32982022D02*
X114391617Y-32315380D01*
X114392448Y-32410615D02*
X114439649Y-32362582D01*
X114534468Y-32314134D01*
X114677320Y-32312887D01*
X114772970Y-32359673D01*
X114821418Y-32454492D01*
X114825989Y-32978282D01*
X114821418Y-32454492D02*
X114868204Y-32358842D01*
X114963023Y-32310394D01*
X115105875Y-32309147D01*
X115201525Y-32355933D01*
X115249973Y-32450752D01*
X115254544Y-32974542D01*
X115730717Y-32970386D02*
X115724899Y-32303745D01*
X115725730Y-32398980D02*
X115772932Y-32350947D01*
X115867751Y-32302498D01*
X116010603Y-32301252D01*
X116106253Y-32348038D01*
X116154701Y-32442857D01*
X116159272Y-32966646D01*
X116154701Y-32442857D02*
X116201487Y-32347207D01*
X116296306Y-32298758D01*
X116439158Y-32297512D01*
X116534808Y-32344298D01*
X116583256Y-32439117D01*
X116587827Y-32962906D01*
D11*
X109448670Y-33843691D02*
X116504034Y-33780458D01*
X109530636Y-42989233D02*
X109443414Y-33257294D01*
X116586000Y-42926000D02*
X116498778Y-33194061D01*
X116504034Y-33780458D02*
X115382831Y-34376951D01*
X116504034Y-33780458D02*
X115372320Y-33204157D01*
X109448670Y-33843691D02*
X110580384Y-34419992D01*
X109448670Y-33843691D02*
X110569873Y-33247198D01*
X186670636Y-73629233D02*
X186670636Y-48629233D01*
X113670636Y-73629233D02*
X186670636Y-73629233D01*
X113670636Y-48629233D02*
X113670636Y-73629233D01*
X186670636Y-48629233D02*
X113670636Y-48629233D01*
X181469976Y-53627693D02*
G75*
G02X181970356Y-54128073I0J-500380D01*
G01*
X181970356Y-68128553D02*
G75*
G02X181469976Y-68628933I-500380J0D01*
G01*
X117969976Y-68628933D02*
G75*
G02X117469596Y-68128553I0J500380D01*
G01*
X117470636Y-54129233D02*
G75*
G02X117970636Y-53629233I500000J0D01*
G01*
X117470636Y-54129233D02*
X117470636Y-68129233D01*
X117969976Y-68629233D02*
X181470636Y-68629233D01*
X181970356Y-68128553D02*
X181970356Y-54129233D01*
X181470636Y-53629233D02*
X117970636Y-53629233D01*
X183170636Y-42629233D02*
X180170636Y-42629233D01*
X189800636Y-42989233D02*
X189010636Y-42989233D01*
X189810636Y-42989233D02*
X189810636Y-79269233D01*
X109530636Y-42989233D02*
X189010636Y-42989233D01*
X109530636Y-79269233D02*
X109530636Y-42989233D01*
X189810636Y-79269233D02*
X109530636Y-79269233D01*
X131812585Y-37102360D02*
X131968585Y-37102360D01*
X129496585Y-37102360D02*
X129652585Y-37102360D01*
X131812422Y-39703490D02*
G75*
G03X131812585Y-37621399I-1079837J1041130D01*
G01*
X129652748Y-39703490D02*
G75*
G02X129652585Y-37621399I1079837J1041130D01*
G01*
X131811193Y-40334695D02*
G75*
G03X131968101Y-37102360I-1078608J1672335D01*
G01*
X129653977Y-40334695D02*
G75*
G02X129497069Y-37102360I1078608J1672335D01*
G01*
X126097585Y-37102360D02*
X126253585Y-37102360D01*
X123781585Y-37102360D02*
X123937585Y-37102360D01*
X126097422Y-39703490D02*
G75*
G03X126097585Y-37621399I-1079837J1041130D01*
G01*
X123937748Y-39703490D02*
G75*
G02X123937585Y-37621399I1079837J1041130D01*
G01*
X126096193Y-40334695D02*
G75*
G03X126253101Y-37102360I-1078608J1672335D01*
G01*
X123938977Y-40334695D02*
G75*
G02X123782069Y-37102360I1078608J1672335D01*
G01*
X119747585Y-37102360D02*
X119903585Y-37102360D01*
X117431585Y-37102360D02*
X117587585Y-37102360D01*
X119747422Y-39703490D02*
G75*
G03X119747585Y-37621399I-1079837J1041130D01*
G01*
X117587748Y-39703490D02*
G75*
G02X117587585Y-37621399I1079837J1041130D01*
G01*
X119746193Y-40334695D02*
G75*
G03X119903101Y-37102360I-1078608J1672335D01*
G01*
X117588977Y-40334695D02*
G75*
G02X117432069Y-37102360I1078608J1672335D01*
G01*
X160990000Y-149904501D02*
X160990000Y-148574501D01*
X159660000Y-149904501D02*
X160990000Y-149904501D01*
X158390000Y-149904501D02*
X158390000Y-147244501D01*
X158390000Y-147244501D02*
X138010000Y-147244501D01*
X158390000Y-149904501D02*
X138010000Y-149904501D01*
X138010000Y-149904501D02*
X138010000Y-147244501D01*
D10*
X180344921Y-41636613D02*
X180344921Y-40636613D01*
X180106826Y-40636613D01*
X179963969Y-40684233D01*
X179868731Y-40779471D01*
X179821112Y-40874709D01*
X179773493Y-41065185D01*
X179773493Y-41208042D01*
X179821112Y-41398518D01*
X179868731Y-41493756D01*
X179963969Y-41588994D01*
X180106826Y-41636613D01*
X180344921Y-41636613D01*
X179392540Y-41588994D02*
X179249683Y-41636613D01*
X179011588Y-41636613D01*
X178916350Y-41588994D01*
X178868731Y-41541375D01*
X178821112Y-41446137D01*
X178821112Y-41350899D01*
X178868731Y-41255661D01*
X178916350Y-41208042D01*
X179011588Y-41160423D01*
X179202064Y-41112804D01*
X179297302Y-41065185D01*
X179344921Y-41017566D01*
X179392540Y-40922328D01*
X179392540Y-40827090D01*
X179344921Y-40731852D01*
X179297302Y-40684233D01*
X179202064Y-40636613D01*
X178963969Y-40636613D01*
X178821112Y-40684233D01*
X177868731Y-41636613D02*
X178440159Y-41636613D01*
X178154445Y-41636613D02*
X178154445Y-40636613D01*
X178249683Y-40779471D01*
X178344921Y-40874709D01*
X178440159Y-40922328D01*
X140154013Y-39114740D02*
X140630204Y-39114740D01*
X140630204Y-38114740D01*
X139820680Y-38590931D02*
X139487346Y-38590931D01*
X139344489Y-39114740D02*
X139820680Y-39114740D01*
X139820680Y-38114740D01*
X139344489Y-38114740D01*
X138915918Y-39114740D02*
X138915918Y-38114740D01*
X138677823Y-38114740D01*
X138534965Y-38162360D01*
X138439727Y-38257598D01*
X138392108Y-38352836D01*
X138344489Y-38543312D01*
X138344489Y-38686169D01*
X138392108Y-38876645D01*
X138439727Y-38971883D01*
X138534965Y-39067121D01*
X138677823Y-39114740D01*
X138915918Y-39114740D01*
X136868299Y-39495693D02*
X136915918Y-39448074D01*
X137011156Y-39305217D01*
X137058775Y-39209979D01*
X137106394Y-39067121D01*
X137154013Y-38829026D01*
X137154013Y-38638550D01*
X137106394Y-38400455D01*
X137058775Y-38257598D01*
X137011156Y-38162360D01*
X136915918Y-38019502D01*
X136868299Y-37971883D01*
X135915918Y-39114740D02*
X136249251Y-38638550D01*
X136487346Y-39114740D02*
X136487346Y-38114740D01*
X136106394Y-38114740D01*
X136011156Y-38162360D01*
X135963537Y-38209979D01*
X135915918Y-38305217D01*
X135915918Y-38448074D01*
X135963537Y-38543312D01*
X136011156Y-38590931D01*
X136106394Y-38638550D01*
X136487346Y-38638550D01*
X135106394Y-39067121D02*
X135201632Y-39114740D01*
X135392108Y-39114740D01*
X135487346Y-39067121D01*
X135534965Y-38971883D01*
X135534965Y-38590931D01*
X135487346Y-38495693D01*
X135392108Y-38448074D01*
X135201632Y-38448074D01*
X135106394Y-38495693D01*
X135058775Y-38590931D01*
X135058775Y-38686169D01*
X135534965Y-38781407D01*
X134201632Y-39114740D02*
X134201632Y-38114740D01*
X134201632Y-39067121D02*
X134296870Y-39114740D01*
X134487346Y-39114740D01*
X134582585Y-39067121D01*
X134630204Y-39019502D01*
X134677823Y-38924264D01*
X134677823Y-38638550D01*
X134630204Y-38543312D01*
X134582585Y-38495693D01*
X134487346Y-38448074D01*
X134296870Y-38448074D01*
X134201632Y-38495693D01*
X133820680Y-39495693D02*
X133773061Y-39448074D01*
X133677823Y-39305217D01*
X133630204Y-39209979D01*
X133582585Y-39067121D01*
X133534965Y-38829026D01*
X133534965Y-38638550D01*
X133582585Y-38400455D01*
X133630204Y-38257598D01*
X133677823Y-38162360D01*
X133773061Y-38019502D01*
X133820680Y-37971883D01*
X129065204Y-42924740D02*
X129541394Y-42924740D01*
X129541394Y-41924740D01*
X128731870Y-42400931D02*
X128398537Y-42400931D01*
X128255680Y-42924740D02*
X128731870Y-42924740D01*
X128731870Y-41924740D01*
X128255680Y-41924740D01*
X127827108Y-42924740D02*
X127827108Y-41924740D01*
X127589013Y-41924740D01*
X127446156Y-41972360D01*
X127350918Y-42067598D01*
X127303299Y-42162836D01*
X127255680Y-42353312D01*
X127255680Y-42496169D01*
X127303299Y-42686645D01*
X127350918Y-42781883D01*
X127446156Y-42877121D01*
X127589013Y-42924740D01*
X127827108Y-42924740D01*
X125779489Y-43305693D02*
X125827108Y-43258074D01*
X125922346Y-43115217D01*
X125969965Y-43019979D01*
X126017585Y-42877121D01*
X126065204Y-42639026D01*
X126065204Y-42448550D01*
X126017585Y-42210455D01*
X125969965Y-42067598D01*
X125922346Y-41972360D01*
X125827108Y-41829502D01*
X125779489Y-41781883D01*
X125208061Y-42448550D02*
X125208061Y-42924740D01*
X125541394Y-41924740D02*
X125208061Y-42448550D01*
X124874727Y-41924740D01*
X124160442Y-42877121D02*
X124255680Y-42924740D01*
X124446156Y-42924740D01*
X124541394Y-42877121D01*
X124589013Y-42781883D01*
X124589013Y-42400931D01*
X124541394Y-42305693D01*
X124446156Y-42258074D01*
X124255680Y-42258074D01*
X124160442Y-42305693D01*
X124112823Y-42400931D01*
X124112823Y-42496169D01*
X124589013Y-42591407D01*
X123541394Y-42924740D02*
X123636632Y-42877121D01*
X123684251Y-42781883D01*
X123684251Y-41924740D01*
X123017585Y-42924740D02*
X123112823Y-42877121D01*
X123160442Y-42781883D01*
X123160442Y-41924740D01*
X122493775Y-42924740D02*
X122589013Y-42877121D01*
X122636632Y-42829502D01*
X122684251Y-42734264D01*
X122684251Y-42448550D01*
X122636632Y-42353312D01*
X122589013Y-42305693D01*
X122493775Y-42258074D01*
X122350918Y-42258074D01*
X122255680Y-42305693D01*
X122208061Y-42353312D01*
X122160442Y-42448550D01*
X122160442Y-42734264D01*
X122208061Y-42829502D01*
X122255680Y-42877121D01*
X122350918Y-42924740D01*
X122493775Y-42924740D01*
X121827108Y-42258074D02*
X121636632Y-42924740D01*
X121446156Y-42448550D01*
X121255680Y-42924740D01*
X121065204Y-42258074D01*
X120779489Y-43305693D02*
X120731870Y-43258074D01*
X120636632Y-43115217D01*
X120589013Y-43019979D01*
X120541394Y-42877121D01*
X120493775Y-42639026D01*
X120493775Y-42448550D01*
X120541394Y-42210455D01*
X120589013Y-42067598D01*
X120636632Y-41972360D01*
X120731870Y-41829502D01*
X120779489Y-41781883D01*
X123112108Y-44829740D02*
X123588299Y-44829740D01*
X123588299Y-43829740D01*
X122778775Y-44305931D02*
X122445442Y-44305931D01*
X122302585Y-44829740D02*
X122778775Y-44829740D01*
X122778775Y-43829740D01*
X122302585Y-43829740D01*
X121874013Y-44829740D02*
X121874013Y-43829740D01*
X121635918Y-43829740D01*
X121493061Y-43877360D01*
X121397823Y-43972598D01*
X121350204Y-44067836D01*
X121302585Y-44258312D01*
X121302585Y-44401169D01*
X121350204Y-44591645D01*
X121397823Y-44686883D01*
X121493061Y-44782121D01*
X121635918Y-44829740D01*
X121874013Y-44829740D01*
X119826394Y-45210693D02*
X119874013Y-45163074D01*
X119969251Y-45020217D01*
X120016870Y-44924979D01*
X120064489Y-44782121D01*
X120112108Y-44544026D01*
X120112108Y-44353550D01*
X120064489Y-44115455D01*
X120016870Y-43972598D01*
X119969251Y-43877360D01*
X119874013Y-43734502D01*
X119826394Y-43686883D01*
X118921632Y-43877360D02*
X119016870Y-43829740D01*
X119159727Y-43829740D01*
X119302585Y-43877360D01*
X119397823Y-43972598D01*
X119445442Y-44067836D01*
X119493061Y-44258312D01*
X119493061Y-44401169D01*
X119445442Y-44591645D01*
X119397823Y-44686883D01*
X119302585Y-44782121D01*
X119159727Y-44829740D01*
X119064489Y-44829740D01*
X118921632Y-44782121D01*
X118874013Y-44734502D01*
X118874013Y-44401169D01*
X119064489Y-44401169D01*
X118445442Y-44829740D02*
X118445442Y-44163074D01*
X118445442Y-44353550D02*
X118397823Y-44258312D01*
X118350204Y-44210693D01*
X118254965Y-44163074D01*
X118159727Y-44163074D01*
X117445442Y-44782121D02*
X117540680Y-44829740D01*
X117731156Y-44829740D01*
X117826394Y-44782121D01*
X117874013Y-44686883D01*
X117874013Y-44305931D01*
X117826394Y-44210693D01*
X117731156Y-44163074D01*
X117540680Y-44163074D01*
X117445442Y-44210693D01*
X117397823Y-44305931D01*
X117397823Y-44401169D01*
X117874013Y-44496407D01*
X116588299Y-44782121D02*
X116683537Y-44829740D01*
X116874013Y-44829740D01*
X116969251Y-44782121D01*
X117016870Y-44686883D01*
X117016870Y-44305931D01*
X116969251Y-44210693D01*
X116874013Y-44163074D01*
X116683537Y-44163074D01*
X116588299Y-44210693D01*
X116540680Y-44305931D01*
X116540680Y-44401169D01*
X117016870Y-44496407D01*
X116112108Y-44163074D02*
X116112108Y-44829740D01*
X116112108Y-44258312D02*
X116064489Y-44210693D01*
X115969251Y-44163074D01*
X115826394Y-44163074D01*
X115731156Y-44210693D01*
X115683537Y-44305931D01*
X115683537Y-44829740D01*
X115302585Y-45210693D02*
X115254965Y-45163074D01*
X115159727Y-45020217D01*
X115112108Y-44924979D01*
X115064489Y-44782121D01*
X115016870Y-44544026D01*
X115016870Y-44353550D01*
X115064489Y-44115455D01*
X115112108Y-43972598D01*
X115159727Y-43877360D01*
X115254965Y-43734502D01*
X115302585Y-43686883D01*
X161294761Y-146486881D02*
X161294761Y-145486881D01*
X160723333Y-146486881D02*
X161151904Y-145915453D01*
X160723333Y-145486881D02*
X161294761Y-146058310D01*
X159913809Y-146439262D02*
X160009047Y-146486881D01*
X160199523Y-146486881D01*
X160294761Y-146439262D01*
X160342380Y-146344024D01*
X160342380Y-145963072D01*
X160294761Y-145867834D01*
X160199523Y-145820215D01*
X160009047Y-145820215D01*
X159913809Y-145867834D01*
X159866190Y-145963072D01*
X159866190Y-146058310D01*
X160342380Y-146153548D01*
X159532857Y-145820215D02*
X159294761Y-146486881D01*
X159056666Y-145820215D02*
X159294761Y-146486881D01*
X159390000Y-146724977D01*
X159437619Y-146772596D01*
X159532857Y-146820215D01*
X158675714Y-145820215D02*
X158675714Y-146820215D01*
X158675714Y-145867834D02*
X158580476Y-145820215D01*
X158390000Y-145820215D01*
X158294761Y-145867834D01*
X158247142Y-145915453D01*
X158199523Y-146010691D01*
X158199523Y-146296405D01*
X158247142Y-146391643D01*
X158294761Y-146439262D01*
X158390000Y-146486881D01*
X158580476Y-146486881D01*
X158675714Y-146439262D01*
X157342380Y-146486881D02*
X157342380Y-145963072D01*
X157390000Y-145867834D01*
X157485238Y-145820215D01*
X157675714Y-145820215D01*
X157770952Y-145867834D01*
X157342380Y-146439262D02*
X157437619Y-146486881D01*
X157675714Y-146486881D01*
X157770952Y-146439262D01*
X157818571Y-146344024D01*
X157818571Y-146248786D01*
X157770952Y-146153548D01*
X157675714Y-146105929D01*
X157437619Y-146105929D01*
X157342380Y-146058310D01*
X156437619Y-146486881D02*
X156437619Y-145486881D01*
X156437619Y-146439262D02*
X156532857Y-146486881D01*
X156723333Y-146486881D01*
X156818571Y-146439262D01*
X156866190Y-146391643D01*
X156913809Y-146296405D01*
X156913809Y-146010691D01*
X156866190Y-145915453D01*
X156818571Y-145867834D01*
X156723333Y-145820215D01*
X156532857Y-145820215D01*
X156437619Y-145867834D01*
X155437619Y-146486881D02*
X156009047Y-146486881D01*
X155723333Y-146486881D02*
X155723333Y-145486881D01*
X155818571Y-145629739D01*
X155913809Y-145724977D01*
X156009047Y-145772596D01*
%LPC*%
D12*
G36*
X190500000Y-170180000D02*
G01*
X109474000Y-170180000D01*
X109474000Y-155448000D01*
X190500000Y-155448000D01*
X190500000Y-170180000D01*
G37*
X190500000Y-170180000D02*
X109474000Y-170180000D01*
X109474000Y-155448000D01*
X190500000Y-155448000D01*
X190500000Y-170180000D01*
D13*
X112170636Y-45629233D03*
X112171156Y-76629933D03*
X187169736Y-76629933D03*
X187169736Y-45629233D03*
D14*
X143570636Y-45629233D03*
X146110636Y-45629233D03*
X148650636Y-45629233D03*
X151190636Y-45629233D03*
X153730636Y-45629233D03*
X156270636Y-45629233D03*
X158810636Y-45629233D03*
X161350636Y-45629233D03*
X163890636Y-45629233D03*
X166430636Y-45629233D03*
X168970636Y-45629233D03*
X171510636Y-45629233D03*
X174050636Y-45629233D03*
X176590636Y-45629233D03*
X179130636Y-45629233D03*
D15*
X181670636Y-45629233D03*
D16*
X119380000Y-98425000D03*
X121920000Y-98425000D03*
X124460000Y-98425000D03*
X127000000Y-98425000D03*
X129540000Y-98425000D03*
X132080000Y-98425000D03*
X134620000Y-98425000D03*
X137160000Y-98425000D03*
X137160000Y-121285000D03*
X134620000Y-121285000D03*
X132080000Y-121285000D03*
X129540000Y-121285000D03*
X127000000Y-121285000D03*
X124460000Y-121285000D03*
D17*
X119380000Y-121285000D03*
D16*
X121920000Y-121285000D03*
D18*
X153750000Y-97660000D03*
X156250000Y-99910000D03*
X156250000Y-94910000D03*
D19*
X132040000Y-145415000D03*
D12*
G36*
X130201975Y-144365276D02*
G01*
X130227699Y-144369092D01*
X130252925Y-144375411D01*
X130277411Y-144384172D01*
X130300920Y-144395291D01*
X130323226Y-144408661D01*
X130344114Y-144424152D01*
X130363383Y-144441617D01*
X130380848Y-144460886D01*
X130396339Y-144481774D01*
X130409709Y-144504080D01*
X130420828Y-144527589D01*
X130429589Y-144552075D01*
X130435908Y-144577301D01*
X130439724Y-144603025D01*
X130441000Y-144629000D01*
X130441000Y-146201000D01*
X130439724Y-146226975D01*
X130435908Y-146252699D01*
X130429589Y-146277925D01*
X130420828Y-146302411D01*
X130409709Y-146325920D01*
X130396339Y-146348226D01*
X130380848Y-146369114D01*
X130363383Y-146388383D01*
X130344114Y-146405848D01*
X130323226Y-146421339D01*
X130300920Y-146434709D01*
X130277411Y-146445828D01*
X130252925Y-146454589D01*
X130227699Y-146460908D01*
X130201975Y-146464724D01*
X130176000Y-146466000D01*
X128904000Y-146466000D01*
X128878025Y-146464724D01*
X128852301Y-146460908D01*
X128827075Y-146454589D01*
X128802589Y-146445828D01*
X128779080Y-146434709D01*
X128756774Y-146421339D01*
X128735886Y-146405848D01*
X128716617Y-146388383D01*
X128699152Y-146369114D01*
X128683661Y-146348226D01*
X128670291Y-146325920D01*
X128659172Y-146302411D01*
X128650411Y-146277925D01*
X128644092Y-146252699D01*
X128640276Y-146226975D01*
X128639000Y-146201000D01*
X128639000Y-144629000D01*
X128640276Y-144603025D01*
X128644092Y-144577301D01*
X128650411Y-144552075D01*
X128659172Y-144527589D01*
X128670291Y-144504080D01*
X128683661Y-144481774D01*
X128699152Y-144460886D01*
X128716617Y-144441617D01*
X128735886Y-144424152D01*
X128756774Y-144408661D01*
X128779080Y-144395291D01*
X128802589Y-144384172D01*
X128827075Y-144375411D01*
X128852301Y-144369092D01*
X128878025Y-144365276D01*
X128904000Y-144364000D01*
X130176000Y-144364000D01*
X130201975Y-144365276D01*
X130201975Y-144365276D01*
G37*
D20*
X129540000Y-145415000D03*
D21*
X130732585Y-39932360D03*
D22*
X130732585Y-37392360D03*
D21*
X125017585Y-39932360D03*
D22*
X125017585Y-37392360D03*
D21*
X118667585Y-39932360D03*
D22*
X118667585Y-37392360D03*
D23*
X184785000Y-84455000D03*
X182245000Y-84455000D03*
X179705000Y-84455000D03*
D24*
X177165000Y-84455000D03*
D23*
X173355000Y-123190000D03*
X173355000Y-120650000D03*
X173355000Y-118110000D03*
X173355000Y-115570000D03*
X173355000Y-113030000D03*
X173355000Y-110490000D03*
X173355000Y-107950000D03*
X173355000Y-105410000D03*
X173355000Y-102870000D03*
X173355000Y-100330000D03*
X173355000Y-97790000D03*
X173355000Y-95250000D03*
X173355000Y-92710000D03*
X173355000Y-90170000D03*
X173355000Y-87630000D03*
D24*
X173355000Y-85090000D03*
D23*
X139340000Y-148574501D03*
X141880000Y-148574501D03*
X144420000Y-148574501D03*
X146960000Y-148574501D03*
X149500000Y-148574501D03*
X152040000Y-148574501D03*
X154580000Y-148574501D03*
X157120000Y-148574501D03*
D24*
X159660000Y-148574501D03*
D25*
X128270000Y-81280000D03*
D26*
X128270000Y-91440000D03*
D25*
X121920000Y-81280000D03*
D26*
X121920000Y-91440000D03*
D25*
X115570000Y-81280000D03*
D26*
X115570000Y-91440000D03*
D25*
X134620000Y-81280000D03*
D26*
X134620000Y-91440000D03*
D25*
X125730000Y-127635000D03*
D26*
X125730000Y-137795000D03*
D27*
X114300000Y-143895000D03*
X114300000Y-135695000D03*
D28*
X114300000Y-141795000D03*
X114300000Y-139795000D03*
D29*
X114300000Y-137795000D03*
M02*
